<mxfile host="app.diagrams.net" agent="Mozilla/5.0 (Windows NT 10.0; Win64; x64) AppleWebKit/537.36 (KHTML, like Gecko) Chrome/134.0.0.0 Safari/537.36 Edg/134.0.0.0" version="26.2.12">
  <diagram name="第 1 页" id="Nt6F61uxD3IZ1__urcfL">
    <mxGraphModel dx="2471" dy="1022" grid="1" gridSize="10" guides="1" tooltips="1" connect="1" arrows="1" fold="1" page="1" pageScale="1" pageWidth="827" pageHeight="1169" math="0" shadow="0">
      <root>
        <mxCell id="0" />
        <mxCell id="1" parent="0" />
        <mxCell id="NfkBw3BczBmgEgGzYy1L-18" value="" style="rounded=0;whiteSpace=wrap;html=1;dashed=1;" vertex="1" parent="1">
          <mxGeometry x="-449" y="370" width="1010" height="442" as="geometry" />
        </mxCell>
        <mxCell id="NfkBw3BczBmgEgGzYy1L-17" value="" style="rounded=0;whiteSpace=wrap;html=1;dashed=1;" vertex="1" parent="1">
          <mxGeometry x="-449" y="150" width="1010" height="200" as="geometry" />
        </mxCell>
        <mxCell id="NfkBw3BczBmgEgGzYy1L-1" value="ModelSelectionDialog" style="swimlane;fontStyle=1;align=center;verticalAlign=top;childLayout=stackLayout;horizontal=1;startSize=26;horizontalStack=0;resizeParent=1;resizeParentMax=0;resizeLast=0;collapsible=1;marginBottom=0;whiteSpace=wrap;html=1;" vertex="1" parent="1">
          <mxGeometry x="-369" y="185" width="200" height="130" as="geometry" />
        </mxCell>
        <mxCell id="NfkBw3BczBmgEgGzYy1L-2" value="- diolog: JDialog&lt;div&gt;- modelList: JComboBox&amp;lt;String&amp;gt;&lt;/div&gt;&lt;div&gt;-&amp;nbsp;&lt;span style=&quot;background-color: transparent; color: light-dark(rgb(0, 0, 0), rgb(255, 255, 255));&quot;&gt;modelClient:&amp;nbsp;&lt;/span&gt;&lt;span style=&quot;background-color: transparent; color: light-dark(rgb(0, 0, 0), rgb(255, 255, 255));&quot;&gt;ModelClient&amp;nbsp;&lt;/span&gt;&lt;/div&gt;&lt;div&gt;&lt;div&gt;&lt;br&gt;&lt;/div&gt;&lt;/div&gt;" style="text;strokeColor=none;fillColor=none;align=left;verticalAlign=top;spacingLeft=4;spacingRight=4;overflow=hidden;rotatable=0;points=[[0,0.5],[1,0.5]];portConstraint=eastwest;whiteSpace=wrap;html=1;" vertex="1" parent="NfkBw3BczBmgEgGzYy1L-1">
          <mxGeometry y="26" width="200" height="54" as="geometry" />
        </mxCell>
        <mxCell id="NfkBw3BczBmgEgGzYy1L-3" value="" style="line;strokeWidth=1;fillColor=none;align=left;verticalAlign=middle;spacingTop=-1;spacingLeft=3;spacingRight=3;rotatable=0;labelPosition=right;points=[];portConstraint=eastwest;strokeColor=inherit;" vertex="1" parent="NfkBw3BczBmgEgGzYy1L-1">
          <mxGeometry y="80" width="200" height="8" as="geometry" />
        </mxCell>
        <mxCell id="NfkBw3BczBmgEgGzYy1L-4" value="+ method(type): type&lt;div&gt;+ modelSelection&lt;/div&gt;" style="text;strokeColor=none;fillColor=none;align=left;verticalAlign=top;spacingLeft=4;spacingRight=4;overflow=hidden;rotatable=0;points=[[0,0.5],[1,0.5]];portConstraint=eastwest;whiteSpace=wrap;html=1;" vertex="1" parent="NfkBw3BczBmgEgGzYy1L-1">
          <mxGeometry y="88" width="200" height="42" as="geometry" />
        </mxCell>
        <mxCell id="NfkBw3BczBmgEgGzYy1L-9" value="ModelManager" style="swimlane;fontStyle=1;align=center;verticalAlign=top;childLayout=stackLayout;horizontal=1;startSize=26;horizontalStack=0;resizeParent=1;resizeParentMax=0;resizeLast=0;collapsible=1;marginBottom=0;whiteSpace=wrap;html=1;" vertex="1" parent="1">
          <mxGeometry x="-79" y="460" width="290" height="150" as="geometry">
            <mxRectangle x="170" y="160" width="120" height="30" as="alternateBounds" />
          </mxGeometry>
        </mxCell>
        <mxCell id="NfkBw3BczBmgEgGzYy1L-10" value="- modelRegistry: ModelRegistry&lt;div&gt;-&amp;nbsp;modelConfig:&amp;nbsp;ModelConfig&lt;/div&gt;&lt;div&gt;&lt;br&gt;&lt;/div&gt;" style="text;strokeColor=none;fillColor=none;align=left;verticalAlign=top;spacingLeft=4;spacingRight=4;overflow=hidden;rotatable=0;points=[[0,0.5],[1,0.5]];portConstraint=eastwest;whiteSpace=wrap;html=1;" vertex="1" parent="NfkBw3BczBmgEgGzYy1L-9">
          <mxGeometry y="26" width="290" height="44" as="geometry" />
        </mxCell>
        <mxCell id="NfkBw3BczBmgEgGzYy1L-11" value="" style="line;strokeWidth=1;fillColor=none;align=left;verticalAlign=middle;spacingTop=-1;spacingLeft=3;spacingRight=3;rotatable=0;labelPosition=right;points=[];portConstraint=eastwest;strokeColor=inherit;" vertex="1" parent="NfkBw3BczBmgEgGzYy1L-9">
          <mxGeometry y="70" width="290" height="8" as="geometry" />
        </mxCell>
        <mxCell id="NfkBw3BczBmgEgGzYy1L-12" value="&lt;div&gt;&lt;span style=&quot;color: light-dark(rgb(0, 0, 0), rgb(255, 255, 255)); background-color: transparent;&quot;&gt;-&amp;nbsp;&lt;/span&gt;&lt;span style=&quot;background-color: transparent;&quot;&gt;registerDefaultModels: void&lt;/span&gt;&lt;/div&gt;&lt;div&gt;&lt;span style=&quot;background-color: transparent;&quot;&gt;+&amp;nbsp;&lt;/span&gt;&lt;span style=&quot;background-color: transparent;&quot;&gt;getModelNames:&amp;nbsp;&lt;/span&gt;&lt;span style=&quot;background-color: transparent;&quot;&gt;List&amp;lt;String&amp;gt;&lt;/span&gt;&lt;/div&gt;+ m&lt;span style=&quot;background-color: transparent; color: light-dark(rgb(0, 0, 0), rgb(255, 255, 255));&quot;&gt;odelManager&lt;/span&gt;&lt;div&gt;&lt;span style=&quot;background-color: transparent;&quot;&gt;+&amp;nbsp;&lt;/span&gt;&lt;span style=&quot;background-color: transparent;&quot;&gt;getModelExecutor(String modelId):&amp;nbsp;&lt;/span&gt;&lt;span style=&quot;background-color: transparent;&quot;&gt;ModelExecutor&lt;/span&gt;&lt;/div&gt;" style="text;strokeColor=none;fillColor=none;align=left;verticalAlign=top;spacingLeft=4;spacingRight=4;overflow=hidden;rotatable=0;points=[[0,0.5],[1,0.5]];portConstraint=eastwest;whiteSpace=wrap;html=1;" vertex="1" parent="NfkBw3BczBmgEgGzYy1L-9">
          <mxGeometry y="78" width="290" height="72" as="geometry" />
        </mxCell>
        <mxCell id="NfkBw3BczBmgEgGzYy1L-13" value="LocalModelExecutor" style="swimlane;fontStyle=1;align=center;verticalAlign=top;childLayout=stackLayout;horizontal=1;startSize=26;horizontalStack=0;resizeParent=1;resizeParentMax=0;resizeLast=0;collapsible=1;marginBottom=0;whiteSpace=wrap;html=1;" vertex="1" parent="1">
          <mxGeometry x="-399" y="430" width="280" height="140" as="geometry" />
        </mxCell>
        <mxCell id="NfkBw3BczBmgEgGzYy1L-14" value="- model:&amp;nbsp;CodeT5ForAPR&lt;div&gt;...&lt;br&gt;&lt;div&gt;-&amp;nbsp;&lt;span style=&quot;background-color: transparent; color: light-dark(rgb(0, 0, 0), rgb(255, 255, 255));&quot;&gt;tokenizer:&amp;nbsp;&lt;/span&gt;&lt;span style=&quot;background-color: transparent; color: light-dark(rgb(0, 0, 0), rgb(255, 255, 255));&quot;&gt;Tokenizer&amp;nbsp;&lt;/span&gt;&lt;/div&gt;&lt;div&gt;&lt;div&gt;&lt;br&gt;&lt;div&gt;&lt;br&gt;&lt;/div&gt;&lt;/div&gt;&lt;/div&gt;&lt;/div&gt;" style="text;strokeColor=none;fillColor=none;align=left;verticalAlign=top;spacingLeft=4;spacingRight=4;overflow=hidden;rotatable=0;points=[[0,0.5],[1,0.5]];portConstraint=eastwest;whiteSpace=wrap;html=1;" vertex="1" parent="NfkBw3BczBmgEgGzYy1L-13">
          <mxGeometry y="26" width="280" height="54" as="geometry" />
        </mxCell>
        <mxCell id="NfkBw3BczBmgEgGzYy1L-15" value="" style="line;strokeWidth=1;fillColor=none;align=left;verticalAlign=middle;spacingTop=-1;spacingLeft=3;spacingRight=3;rotatable=0;labelPosition=right;points=[];portConstraint=eastwest;strokeColor=inherit;" vertex="1" parent="NfkBw3BczBmgEgGzYy1L-13">
          <mxGeometry y="80" width="280" height="8" as="geometry" />
        </mxCell>
        <mxCell id="NfkBw3BczBmgEgGzYy1L-16" value="+ LocalModelExecutor(ModelMetadata metadata)&lt;div&gt;+&amp;nbsp;generatePatch(String defectCode): String&lt;/div&gt;" style="text;strokeColor=none;fillColor=none;align=left;verticalAlign=top;spacingLeft=4;spacingRight=4;overflow=hidden;rotatable=0;points=[[0,0.5],[1,0.5]];portConstraint=eastwest;whiteSpace=wrap;html=1;" vertex="1" parent="NfkBw3BczBmgEgGzYy1L-13">
          <mxGeometry y="88" width="280" height="52" as="geometry" />
        </mxCell>
        <mxCell id="NfkBw3BczBmgEgGzYy1L-24" value="APIModelExecutor" style="swimlane;fontStyle=1;align=center;verticalAlign=top;childLayout=stackLayout;horizontal=1;startSize=26;horizontalStack=0;resizeParent=1;resizeParentMax=0;resizeLast=0;collapsible=1;marginBottom=0;whiteSpace=wrap;html=1;" vertex="1" parent="1">
          <mxGeometry x="-399" y="640" width="350" height="140" as="geometry" />
        </mxCell>
        <mxCell id="NfkBw3BczBmgEgGzYy1L-25" value="- apiUrl: String&amp;nbsp;&lt;div&gt;- apiKey: String&lt;/div&gt;&lt;div&gt;&lt;span style=&quot;background-color: transparent; color: light-dark(rgb(0, 0, 0), rgb(255, 255, 255));&quot;&gt;- client:&amp;nbsp;&lt;/span&gt;OkHttpClient&amp;nbsp;&lt;/div&gt;" style="text;strokeColor=none;fillColor=none;align=left;verticalAlign=top;spacingLeft=4;spacingRight=4;overflow=hidden;rotatable=0;points=[[0,0.5],[1,0.5]];portConstraint=eastwest;whiteSpace=wrap;html=1;" vertex="1" parent="NfkBw3BczBmgEgGzYy1L-24">
          <mxGeometry y="26" width="350" height="54" as="geometry" />
        </mxCell>
        <mxCell id="NfkBw3BczBmgEgGzYy1L-26" value="" style="line;strokeWidth=1;fillColor=none;align=left;verticalAlign=middle;spacingTop=-1;spacingLeft=3;spacingRight=3;rotatable=0;labelPosition=right;points=[];portConstraint=eastwest;strokeColor=inherit;" vertex="1" parent="NfkBw3BczBmgEgGzYy1L-24">
          <mxGeometry y="80" width="350" height="8" as="geometry" />
        </mxCell>
        <mxCell id="NfkBw3BczBmgEgGzYy1L-27" value="+ APIModelExecutor(ModelMetadata metadata, String apiKey)&lt;div&gt;+&amp;nbsp;generatePatch(String defectCode): String&lt;/div&gt;&lt;div&gt;&amp;nbsp;&lt;/div&gt;" style="text;strokeColor=none;fillColor=none;align=left;verticalAlign=top;spacingLeft=4;spacingRight=4;overflow=hidden;rotatable=0;points=[[0,0.5],[1,0.5]];portConstraint=eastwest;whiteSpace=wrap;html=1;" vertex="1" parent="NfkBw3BczBmgEgGzYy1L-24">
          <mxGeometry y="88" width="350" height="52" as="geometry" />
        </mxCell>
        <mxCell id="NfkBw3BczBmgEgGzYy1L-20" value="ModelConfig" style="swimlane;fontStyle=1;align=center;verticalAlign=top;childLayout=stackLayout;horizontal=1;startSize=26;horizontalStack=0;resizeParent=1;resizeParentMax=0;resizeLast=0;collapsible=1;marginBottom=0;whiteSpace=wrap;html=1;" vertex="1" parent="1">
          <mxGeometry x="241" y="415" width="290" height="170" as="geometry" />
        </mxCell>
        <mxCell id="NfkBw3BczBmgEgGzYy1L-21" value="- localModelRoot: String&amp;nbsp;&lt;div&gt;-&amp;nbsp;apiEndpoints:&amp;nbsp;Map&amp;lt;String, String&amp;gt;&lt;/div&gt;&lt;div&gt;-&amp;nbsp;apiKeys:&amp;nbsp;&lt;span style=&quot;background-color: transparent; color: light-dark(rgb(0, 0, 0), rgb(255, 255, 255));&quot;&gt;Map&amp;lt;String, String&amp;gt;&lt;/span&gt;&lt;/div&gt;&lt;div&gt;&lt;span style=&quot;background-color: transparent; color: light-dark(rgb(0, 0, 0), rgb(255, 255, 255));&quot;&gt;-&amp;nbsp;&lt;/span&gt;&lt;span style=&quot;background-color: transparent;&quot;&gt;maxTokens: int&lt;/span&gt;&lt;/div&gt;&lt;div&gt;&lt;br&gt;&lt;/div&gt;" style="text;strokeColor=none;fillColor=none;align=left;verticalAlign=top;spacingLeft=4;spacingRight=4;overflow=hidden;rotatable=0;points=[[0,0.5],[1,0.5]];portConstraint=eastwest;whiteSpace=wrap;html=1;" vertex="1" parent="NfkBw3BczBmgEgGzYy1L-20">
          <mxGeometry y="26" width="290" height="64" as="geometry" />
        </mxCell>
        <mxCell id="NfkBw3BczBmgEgGzYy1L-22" value="" style="line;strokeWidth=1;fillColor=none;align=left;verticalAlign=middle;spacingTop=-1;spacingLeft=3;spacingRight=3;rotatable=0;labelPosition=right;points=[];portConstraint=eastwest;strokeColor=inherit;" vertex="1" parent="NfkBw3BczBmgEgGzYy1L-20">
          <mxGeometry y="90" width="290" height="8" as="geometry" />
        </mxCell>
        <mxCell id="NfkBw3BczBmgEgGzYy1L-23" value="&lt;div&gt;&lt;span style=&quot;background-color: transparent;&quot;&gt;+&amp;nbsp;&lt;/span&gt;&lt;span style=&quot;background-color: transparent;&quot;&gt;getLocalModelPath(String modelId): String&lt;/span&gt;&lt;/div&gt;&lt;div&gt;+&amp;nbsp;getApiUrl(String modelId): String&lt;/div&gt;&lt;div&gt;+&amp;nbsp;getApiKey(String modelId): String&lt;/div&gt;&lt;div&gt;+&amp;nbsp;getMaxTokens: int&lt;/div&gt;" style="text;strokeColor=none;fillColor=none;align=left;verticalAlign=top;spacingLeft=4;spacingRight=4;overflow=hidden;rotatable=0;points=[[0,0.5],[1,0.5]];portConstraint=eastwest;whiteSpace=wrap;html=1;" vertex="1" parent="NfkBw3BczBmgEgGzYy1L-20">
          <mxGeometry y="98" width="290" height="72" as="geometry" />
        </mxCell>
        <mxCell id="NfkBw3BczBmgEgGzYy1L-29" value="&lt;p style=&quot;margin:0px;margin-top:4px;text-align:center;&quot;&gt;&lt;i&gt;&amp;lt;&amp;lt;Interface&amp;gt;&amp;gt;&lt;/i&gt;&lt;br&gt;&lt;span style=&quot;font-weight: 700;&quot;&gt;ModelExecutor&lt;/span&gt;&lt;/p&gt;&lt;hr size=&quot;1&quot; style=&quot;border-style:solid;&quot;&gt;&lt;p style=&quot;margin:0px;margin-left:4px;&quot;&gt;+ generatePatch(String defectCode): String&lt;br&gt;&lt;/p&gt;" style="verticalAlign=top;align=left;overflow=fill;html=1;whiteSpace=wrap;" vertex="1" parent="1">
          <mxGeometry x="-709" y="570" width="240" height="70" as="geometry" />
        </mxCell>
        <mxCell id="NfkBw3BczBmgEgGzYy1L-30" value="&lt;p style=&quot;margin:0px;margin-top:4px;text-align:center;&quot;&gt;&lt;b&gt;ModelMetadata&lt;/b&gt;&lt;/p&gt;&lt;hr size=&quot;1&quot; style=&quot;border-style:solid;&quot;&gt;&lt;p style=&quot;margin:0px;margin-left:4px;&quot;&gt;+ modelId: int&lt;/p&gt;&lt;p style=&quot;margin:0px;margin-left:4px;&quot;&gt;+&amp;nbsp;modelName: String&lt;/p&gt;&lt;p style=&quot;margin:0px;margin-left:4px;&quot;&gt;+&amp;nbsp;modelType&lt;/p&gt;&lt;p style=&quot;margin:0px;margin-left:4px;&quot;&gt;+&amp;nbsp;supportedLanguages: String&lt;/p&gt;&lt;p style=&quot;margin:0px;margin-left:4px;&quot;&gt;+&amp;nbsp;modelPath: String&lt;/p&gt;&lt;p style=&quot;margin:0px;margin-left:4px;&quot;&gt;+&amp;nbsp;description: String&lt;/p&gt;" style="verticalAlign=top;align=left;overflow=fill;html=1;whiteSpace=wrap;" vertex="1" parent="1">
          <mxGeometry x="241" y="182" width="190" height="130" as="geometry" />
        </mxCell>
        <mxCell id="NfkBw3BczBmgEgGzYy1L-31" value="&lt;p style=&quot;margin:0px;margin-top:4px;text-align:center;&quot;&gt;&lt;b&gt;ModelUtils&lt;/b&gt;&lt;/p&gt;&lt;hr size=&quot;1&quot; style=&quot;border-style:solid;&quot;&gt;&lt;p style=&quot;margin:0px;margin-left:4px;&quot;&gt;+ validateModelPath(String path): boolean&lt;/p&gt;&lt;p style=&quot;margin:0px;margin-left:4px;&quot;&gt;+&amp;nbsp;parseSupportedLanguages(String languagesStr)&lt;/p&gt;&lt;p style=&quot;margin:0px;margin-left:4px;&quot;&gt;+ sanitizeCode(String code): String&lt;/p&gt;&lt;p style=&quot;margin:0px;margin-left:4px;&quot;&gt;...&lt;/p&gt;&lt;p style=&quot;margin:0px;margin-left:4px;&quot;&gt;&lt;br&gt;&lt;/p&gt;" style="verticalAlign=top;align=left;overflow=fill;html=1;whiteSpace=wrap;" vertex="1" parent="1">
          <mxGeometry x="241" y="665" width="280" height="90" as="geometry" />
        </mxCell>
        <mxCell id="NfkBw3BczBmgEgGzYy1L-34" value="&lt;p style=&quot;margin:0px;margin-top:4px;text-align:center;&quot;&gt;&lt;i&gt;&amp;lt;&amp;lt;Interface&amp;gt;&amp;gt;&lt;/i&gt;&lt;br&gt;&lt;b&gt;DialogWrapper&lt;/b&gt;&lt;/p&gt;&lt;hr size=&quot;1&quot; style=&quot;border-style:solid;&quot;&gt;&lt;p style=&quot;margin:0px;margin-left:4px;&quot;&gt;- title: String&lt;/p&gt;&lt;hr size=&quot;1&quot; style=&quot;border-style:solid;&quot;&gt;&lt;p style=&quot;margin:0px;margin-left:4px;&quot;&gt;# doOKAction()&lt;/p&gt;&lt;p style=&quot;margin:0px;margin-left:4px;&quot;&gt;# createActions(): Action[]&lt;/p&gt;&lt;p style=&quot;margin:0px;margin-left:4px;&quot;&gt;# createCenterPanel(): JComponent&lt;/p&gt;&lt;div&gt;&lt;br&gt;&lt;/div&gt;" style="verticalAlign=top;align=left;overflow=fill;html=1;whiteSpace=wrap;" vertex="1" parent="1">
          <mxGeometry x="-709" y="185" width="210" height="127" as="geometry" />
        </mxCell>
        <mxCell id="NfkBw3BczBmgEgGzYy1L-35" value="&lt;p style=&quot;margin:0px;margin-top:4px;text-align:center;&quot;&gt;&lt;b&gt;ModelClient&lt;/b&gt;&lt;/p&gt;&lt;hr size=&quot;1&quot; style=&quot;border-style:solid;&quot;&gt;&lt;p style=&quot;margin:0px;margin-left:4px;&quot;&gt;...&lt;/p&gt;&lt;hr size=&quot;1&quot; style=&quot;border-style:solid;&quot;&gt;&lt;p style=&quot;margin:0px;margin-left:4px;&quot;&gt;+ getModelList()&lt;/p&gt;&lt;p style=&quot;margin:0px;margin-left:4px;&quot;&gt;+&amp;nbsp;invokeModel(String modelId, String code)&lt;/p&gt;" style="verticalAlign=top;align=left;overflow=fill;html=1;whiteSpace=wrap;" vertex="1" parent="1">
          <mxGeometry x="-79" y="202" width="240" height="90" as="geometry" />
        </mxCell>
        <mxCell id="NfkBw3BczBmgEgGzYy1L-36" value="插件端" style="text;html=1;align=center;verticalAlign=middle;whiteSpace=wrap;rounded=0;" vertex="1" parent="1">
          <mxGeometry x="501" y="320" width="60" height="30" as="geometry" />
        </mxCell>
        <mxCell id="NfkBw3BczBmgEgGzYy1L-37" value="服务端" style="text;html=1;align=center;verticalAlign=middle;whiteSpace=wrap;rounded=0;" vertex="1" parent="1">
          <mxGeometry x="501" y="370" width="60" height="30" as="geometry" />
        </mxCell>
        <mxCell id="NfkBw3BczBmgEgGzYy1L-41" value="" style="endArrow=block;dashed=1;html=1;rounded=0;exitX=0;exitY=0.5;exitDx=0;exitDy=0;entryX=1.002;entryY=0.434;entryDx=0;entryDy=0;endFill=0;entryPerimeter=0;" edge="1" parent="1" source="NfkBw3BczBmgEgGzYy1L-2" target="NfkBw3BczBmgEgGzYy1L-34">
          <mxGeometry width="160" relative="1" as="geometry">
            <mxPoint x="-459" y="230" as="sourcePoint" />
            <mxPoint x="-299" y="230" as="targetPoint" />
          </mxGeometry>
        </mxCell>
        <mxCell id="NfkBw3BczBmgEgGzYy1L-42" value="" style="endArrow=block;dashed=1;html=1;rounded=0;exitX=0;exitY=0.5;exitDx=0;exitDy=0;entryX=1;entryY=0.5;entryDx=0;entryDy=0;endFill=0;" edge="1" parent="1" target="NfkBw3BczBmgEgGzYy1L-29">
          <mxGeometry width="160" relative="1" as="geometry">
            <mxPoint x="-399" y="490" as="sourcePoint" />
            <mxPoint x="-529" y="492" as="targetPoint" />
            <Array as="points">
              <mxPoint x="-429" y="490" />
              <mxPoint x="-429" y="605" />
            </Array>
          </mxGeometry>
        </mxCell>
        <mxCell id="NfkBw3BczBmgEgGzYy1L-43" value="" style="endArrow=block;dashed=1;html=1;rounded=0;exitX=0;exitY=0.5;exitDx=0;exitDy=0;entryX=1;entryY=0.5;entryDx=0;entryDy=0;endFill=0;" edge="1" parent="1" source="NfkBw3BczBmgEgGzYy1L-25" target="NfkBw3BczBmgEgGzYy1L-29">
          <mxGeometry width="160" relative="1" as="geometry">
            <mxPoint x="-389" y="500" as="sourcePoint" />
            <mxPoint x="-459" y="615" as="targetPoint" />
            <Array as="points">
              <mxPoint x="-429" y="693" />
              <mxPoint x="-429" y="605" />
              <mxPoint x="-439" y="605" />
            </Array>
          </mxGeometry>
        </mxCell>
        <mxCell id="NfkBw3BczBmgEgGzYy1L-45" value="HTTP" style="endArrow=open;endSize=12;dashed=1;html=1;rounded=0;exitX=0.5;exitY=1;exitDx=0;exitDy=0;entryX=0.476;entryY=0.004;entryDx=0;entryDy=0;entryPerimeter=0;" edge="1" parent="1" source="NfkBw3BczBmgEgGzYy1L-35" target="NfkBw3BczBmgEgGzYy1L-9">
          <mxGeometry width="160" relative="1" as="geometry">
            <mxPoint x="-69" y="400" as="sourcePoint" />
            <mxPoint x="91" y="400" as="targetPoint" />
            <Array as="points">
              <mxPoint x="41" y="380" />
              <mxPoint x="59" y="380" />
            </Array>
          </mxGeometry>
        </mxCell>
        <mxCell id="NfkBw3BczBmgEgGzYy1L-46" value="" style="endArrow=diamondThin;endSize=12;dashed=1;html=1;rounded=0;exitX=0;exitY=0.5;exitDx=0;exitDy=0;entryX=1.004;entryY=0.964;entryDx=0;entryDy=0;entryPerimeter=0;endFill=0;" edge="1" parent="1" source="NfkBw3BczBmgEgGzYy1L-10" target="NfkBw3BczBmgEgGzYy1L-14">
          <mxGeometry width="160" relative="1" as="geometry">
            <mxPoint x="-39" y="450" as="sourcePoint" />
            <mxPoint x="-99" y="510" as="targetPoint" />
          </mxGeometry>
        </mxCell>
        <mxCell id="NfkBw3BczBmgEgGzYy1L-48" value="" style="endArrow=diamondThin;endSize=12;dashed=1;html=1;rounded=0;exitX=0.476;exitY=1.004;exitDx=0;exitDy=0;exitPerimeter=0;entryX=1;entryY=0.5;entryDx=0;entryDy=0;endFill=0;" edge="1" parent="1" source="NfkBw3BczBmgEgGzYy1L-12" target="NfkBw3BczBmgEgGzYy1L-25">
          <mxGeometry width="160" relative="1" as="geometry">
            <mxPoint x="-49" y="620" as="sourcePoint" />
            <mxPoint x="111" y="620" as="targetPoint" />
            <Array as="points">
              <mxPoint x="59" y="693" />
            </Array>
          </mxGeometry>
        </mxCell>
        <mxCell id="NfkBw3BczBmgEgGzYy1L-49" value="" style="endArrow=diamondThin;endSize=12;dashed=1;html=1;rounded=0;exitX=1.004;exitY=0.642;exitDx=0;exitDy=0;entryX=0.003;entryY=0.474;entryDx=0;entryDy=0;exitPerimeter=0;entryPerimeter=0;endFill=0;" edge="1" parent="1" source="NfkBw3BczBmgEgGzYy1L-2" target="NfkBw3BczBmgEgGzYy1L-35">
          <mxGeometry width="160" relative="1" as="geometry">
            <mxPoint x="-109" y="330" as="sourcePoint" />
            <mxPoint x="51" y="330" as="targetPoint" />
          </mxGeometry>
        </mxCell>
        <mxCell id="NfkBw3BczBmgEgGzYy1L-50" value="" style="endArrow=open;endSize=12;dashed=1;html=1;rounded=0;exitX=1;exitY=0.5;exitDx=0;exitDy=0;entryX=0;entryY=0.5;entryDx=0;entryDy=0;" edge="1" parent="1" source="NfkBw3BczBmgEgGzYy1L-35" target="NfkBw3BczBmgEgGzYy1L-30">
          <mxGeometry width="160" relative="1" as="geometry">
            <mxPoint x="171" y="240" as="sourcePoint" />
            <mxPoint x="331" y="240" as="targetPoint" />
          </mxGeometry>
        </mxCell>
        <mxCell id="NfkBw3BczBmgEgGzYy1L-51" value="1" style="endArrow=open;html=1;endSize=12;startArrow=diamondThin;startSize=14;startFill=1;edgeStyle=orthogonalEdgeStyle;align=left;verticalAlign=bottom;rounded=0;exitX=0.883;exitY=1.019;exitDx=0;exitDy=0;exitPerimeter=0;entryX=0.445;entryY=1;entryDx=0;entryDy=0;entryPerimeter=0;" edge="1" parent="1" source="NfkBw3BczBmgEgGzYy1L-12" target="NfkBw3BczBmgEgGzYy1L-23">
          <mxGeometry x="-1" y="3" relative="1" as="geometry">
            <mxPoint x="211" y="560" as="sourcePoint" />
            <mxPoint x="371" y="560" as="targetPoint" />
            <Array as="points">
              <mxPoint x="177" y="650" />
              <mxPoint x="370" y="650" />
            </Array>
          </mxGeometry>
        </mxCell>
        <mxCell id="NfkBw3BczBmgEgGzYy1L-52" value="" style="endArrow=open;endSize=12;dashed=1;html=1;rounded=0;exitX=0.657;exitY=1.001;exitDx=0;exitDy=0;entryX=0;entryY=0.5;entryDx=0;entryDy=0;exitPerimeter=0;" edge="1" parent="1" source="NfkBw3BczBmgEgGzYy1L-12" target="NfkBw3BczBmgEgGzYy1L-31">
          <mxGeometry width="160" relative="1" as="geometry">
            <mxPoint x="121" y="720" as="sourcePoint" />
            <mxPoint x="201" y="720" as="targetPoint" />
            <Array as="points">
              <mxPoint x="111" y="710" />
            </Array>
          </mxGeometry>
        </mxCell>
      </root>
    </mxGraphModel>
  </diagram>
</mxfile>
